<svg id="Layer_1" enable-background="new 0 0 512 512" height="512" viewBox="0 0 512 512" width="512" xmlns="http://www.w3.org/2000/svg"><g id="Layer_2_00000138552524522459854550000011744709226081174206_"><g id="chevron_down"><path d="m511 138.2c-3-13.8-11.2-23.1-25.2-27-15.3-4.3-28 .4-38.8 11.3-41.9 42-83.7 84.1-125.5 126.2-21 21-42.2 41.9-65.4 65l-191.4-191.4c-16-16-38.8-16.9-53.6-2.8s-15 38 .6 53.7c72.2 72.6 144.7 145.1 217.3 217.3 15.8 15.7 38 16.1 53.5.6 73-72.5 145.7-145.2 218.2-218.1 9.5-9.6 13.3-21.4 10.3-34.8z"/></g></g></svg>